<svg width="512" height="512" viewBox="0 0 512 512" fill="none" xmlns="http://www.w3.org/2000/svg">
<path d="M256 512C237.382 495.371 217.212 482.462 195.491 473.272C173.77 464.082 151.273 459.487 128 459.487C111.709 459.487 95.7091 461.894 80 466.708C64.2909 471.521 49.2606 478.304 34.9091 487.056C26.7636 491.87 18.9091 491.651 11.3455 486.4C3.78182 481.149 0 473.491 0 463.426V147.036C0 142.222 1.06667 137.627 3.2 133.251C5.33333 128.875 8.53333 125.593 12.8 123.405C30.6424 112.903 49.2606 105.026 68.6545 99.7744C88.0485 94.5231 107.83 91.8974 128 91.8974C150.497 91.8974 172.509 95.1795 194.036 101.744C215.564 108.308 236.218 118.154 256 131.282V448.985C275.782 434.981 296.533 424.479 318.255 417.477C339.976 410.475 361.891 406.974 384 406.974C397.964 406.974 411.636 408.287 425.018 410.913C438.4 413.538 451.879 417.477 465.455 422.728V107.651C471.273 109.839 476.994 112.137 482.618 114.544C488.242 116.95 493.77 119.904 499.2 123.405C503.467 125.593 506.667 128.875 508.8 133.251C510.933 137.627 512 142.222 512 147.036V463.426C512 473.491 508.218 481.149 500.655 486.4C493.091 491.651 485.236 491.87 477.091 487.056C462.739 478.304 447.709 471.521 432 466.708C416.291 461.894 400.291 459.487 384 459.487C360.727 459.487 338.23 464.082 316.509 473.272C294.788 482.462 274.618 495.371 256 512ZM302.545 380.718V131.282L418.909 0V262.564L302.545 380.718ZM209.455 423.385V163.446C196.655 157.32 183.37 152.615 169.6 149.333C155.83 146.051 141.964 144.41 128 144.41C113.648 144.41 99.6849 145.942 86.1091 149.005C72.5333 152.068 59.3455 156.663 46.5455 162.79V423.385C60.1212 417.696 73.6 413.538 86.9818 410.913C100.364 408.287 114.036 406.974 128 406.974C141.964 406.974 155.636 408.287 169.018 410.913C182.4 413.538 195.879 417.696 209.455 423.385Z" fill="#C4C7C8"/>
</svg>
