<svg width="14" height="14" viewBox="0 0 14 14" fill="none" xmlns="http://www.w3.org/2000/svg">
<path d="M3.375 11.25C3.6875 11.25 3.95312 11.1406 4.17188 10.9219C4.39062 10.7031 4.5 10.4375 4.5 10.125C4.5 9.8125 4.39062 9.54688 4.17188 9.32812C3.95312 9.10938 3.6875 9 3.375 9C3.0625 9 2.79688 9.10938 2.57812 9.32812C2.35938 9.54688 2.25 9.8125 2.25 10.125C2.25 10.4375 2.35938 10.7031 2.57812 10.9219C2.79688 11.1406 3.0625 11.25 3.375 11.25ZM3.375 4.5C3.6875 4.5 3.95312 4.39062 4.17188 4.17188C4.39062 3.95312 4.5 3.6875 4.5 3.375C4.5 3.0625 4.39062 2.79688 4.17188 2.57812C3.95312 2.35938 3.6875 2.25 3.375 2.25C3.0625 2.25 2.79688 2.35938 2.57812 2.57812C2.35938 2.79688 2.25 3.0625 2.25 3.375C2.25 3.6875 2.35938 3.95312 2.57812 4.17188C2.79688 4.39062 3.0625 4.5 3.375 4.5ZM6.75 7.875C7.0625 7.875 7.32812 7.76562 7.54688 7.54688C7.76562 7.32812 7.875 7.0625 7.875 6.75C7.875 6.4375 7.76562 6.17188 7.54688 5.95312C7.32812 5.73438 7.0625 5.625 6.75 5.625C6.4375 5.625 6.17188 5.73438 5.95312 5.95312C5.73438 6.17188 5.625 6.4375 5.625 6.75C5.625 7.0625 5.73438 7.32812 5.95312 7.54688C6.17188 7.76562 6.4375 7.875 6.75 7.875ZM10.125 11.25C10.4375 11.25 10.7031 11.1406 10.9219 10.9219C11.1406 10.7031 11.25 10.4375 11.25 10.125C11.25 9.8125 11.1406 9.54688 10.9219 9.32812C10.7031 9.10938 10.4375 9 10.125 9C9.8125 9 9.54688 9.10938 9.32812 9.32812C9.10938 9.54688 9 9.8125 9 10.125C9 10.4375 9.10938 10.7031 9.32812 10.9219C9.54688 11.1406 9.8125 11.25 10.125 11.25ZM10.125 4.5C10.4375 4.5 10.7031 4.39062 10.9219 4.17188C11.1406 3.95312 11.25 3.6875 11.25 3.375C11.25 3.0625 11.1406 2.79688 10.9219 2.57812C10.7031 2.35938 10.4375 2.25 10.125 2.25C9.8125 2.25 9.54688 2.35938 9.32812 2.57812C9.10938 2.79688 9 3.0625 9 3.375C9 3.6875 9.10938 3.95312 9.32812 4.17188C9.54688 4.39062 9.8125 4.5 10.125 4.5ZM1.5 13.5C1.0875 13.5 0.734375 13.3531 0.440625 13.0594C0.146875 12.7656 0 12.4125 0 12V1.5C0 1.0875 0.146875 0.734375 0.440625 0.440625C0.734375 0.146875 1.0875 0 1.5 0H12C12.4125 0 12.7656 0.146875 13.0594 0.440625C13.3531 0.734375 13.5 1.0875 13.5 1.5V12C13.5 12.4125 13.3531 12.7656 13.0594 13.0594C12.7656 13.3531 12.4125 13.5 12 13.5H1.5ZM1.5 12H12V1.5H1.5V12ZM1.5 1.5V12V1.5Z" fill="#C4C7C8"/>
</svg>
