<svg width="15" height="15" viewBox="0 0 15 15" fill="none" xmlns="http://www.w3.org/2000/svg">
<path d="M12.7875 14.775L10.5938 12.6L8.94375 14.25L8.41875 13.725C8.13125 13.4375 7.9875 13.0813 7.9875 12.6562C7.9875 12.2312 8.13125 11.875 8.41875 11.5875L11.5875 8.41875C11.875 8.13125 12.2312 7.9875 12.6562 7.9875C13.0813 7.9875 13.4375 8.13125 13.725 8.41875L14.25 8.94375L12.6 10.5938L14.775 12.7875C14.925 12.9375 15 13.1125 15 13.3125C15 13.5125 14.925 13.6875 14.775 13.8375L13.8375 14.775C13.6875 14.925 13.5125 15 13.3125 15C13.1125 15 12.9375 14.925 12.7875 14.775ZM15 3L6.4875 11.5125L6.58125 11.5875C6.86875 11.875 7.0125 12.2312 7.0125 12.6562C7.0125 13.0813 6.86875 13.4375 6.58125 13.725L6.05625 14.25L4.40625 12.6L2.2125 14.775C2.0625 14.925 1.8875 15 1.6875 15C1.4875 15 1.3125 14.925 1.1625 14.775L0.225 13.8375C0.075 13.6875 0 13.5125 0 13.3125C0 13.1125 0.075 12.9375 0.225 12.7875L2.4 10.5938L0.75 8.94375L1.275 8.41875C1.5625 8.13125 1.91875 7.9875 2.34375 7.9875C2.76875 7.9875 3.125 8.13125 3.4125 8.41875L3.4875 8.5125L12 0H15V3ZM4.7625 5.64375L5.2125 5.2125L5.64375 4.7625L5.2125 5.2125L4.7625 5.64375ZM3.7125 6.7125L0 3V0H3L6.7125 3.7125L5.64375 4.7625L2.38125 1.5H1.5V2.38125L4.7625 5.64375L3.7125 6.7125ZM5.4375 10.4438L13.5 2.38125V1.5H12.6187L4.55625 9.5625L5.4375 10.4438ZM5.4375 10.4438L4.9875 10.0125L4.55625 9.5625L4.9875 10.0125L5.4375 10.4438Z" fill="#C4C7C8"/>
</svg>
